<svg xmlns="http://www.w3.org/2000/svg" width="320" height="120" viewBox="0 0 320 120" fill="none"><g opacity="0.96"><path d="M193.731 44.8743C193.018 41.7307 191.673 38.8172 189.734 36.1336C187.321 32.76 184.116 30.4982 180.159 29.2331C177.864 28.5047 174.976 28.1213 171.494 28.083H147.358V82.3289H171.494C179.961 82.3289 186.213 78.9553 190.288 72.2081C193.295 67.2244 194.799 61.0906 194.799 53.8834C194.799 51.0465 194.443 48.0562 193.731 44.9127M181.109 65.0009C178.933 70.2913 175.095 72.8982 169.555 72.8982H158.753V37.4754H169.555C174.857 37.4754 178.418 38.9322 180.238 41.9224C182.058 44.8743 182.929 49.1297 182.929 54.6501C182.929 58.6754 182.335 62.1257 181.109 65.0009Z" fill="#0A4163"></path><path d="M237.215 79.5705C236.859 79.0721 236.621 78.152 236.582 76.7719C236.542 74.9701 236.502 73.3983 236.502 72.1332V53.7318C236.502 48.9014 234.722 45.6045 231.201 43.8793C227.679 42.1159 223.604 41.2725 219.053 41.2725C212.09 41.2725 207.144 43.0359 204.255 46.5629C202.435 48.8247 201.446 51.6999 201.209 55.2269H211.654C211.892 53.6934 212.406 52.4667 213.198 51.5466C214.266 50.3198 216.126 49.7065 218.697 49.7065C220.992 49.7065 222.773 50.0515 223.96 50.6649C225.147 51.2782 225.74 52.4283 225.74 54.0768C225.74 55.4186 224.989 56.4153 223.406 57.0287C222.535 57.4121 221.111 57.7188 219.093 57.9488L215.374 58.4088C211.18 58.9072 207.975 59.7889 205.799 60.9773C201.842 63.2009 199.864 66.7661 199.864 71.7115C199.864 75.5068 201.09 78.4587 203.583 80.5289C206.036 82.599 209.162 83.6341 212.921 83.6341C215.849 83.6341 218.539 82.9824 220.874 81.679C222.812 80.5672 224.553 79.2638 226.057 77.6537C226.136 78.5737 226.215 79.3788 226.334 80.1072C226.492 80.7972 226.69 81.564 227.046 82.369H238.797V80.8356C238.085 80.4905 237.571 80.1072 237.215 79.6088M225.701 66.7661C225.622 70.2931 224.553 72.7083 222.614 74.0117C220.597 75.3535 218.42 76.0052 216.086 76.0052C214.582 76.0052 213.316 75.6218 212.288 74.8168C211.259 74.0117 210.705 72.7083 210.705 70.9448C210.705 68.913 211.575 67.4562 213.237 66.4978C214.266 65.9227 215.928 65.4627 218.223 65.041L220.715 64.581C221.942 64.3893 222.891 64.1209 223.604 63.8526C224.316 63.5842 225.028 63.2775 225.74 62.8558V66.7661H225.701Z" fill="#0A4163"></path><path d="M264.951 50.0126V42.537H258.225V31.3428H247.502V42.537H241.726V50.0126H247.502V74.7012C247.502 77.2314 248.096 79.0715 249.322 80.26C251.182 82.1384 254.704 82.9818 259.808 82.8285L264.951 82.6368V74.8162C264.595 74.8162 264.239 74.8545 263.883 74.8545C263.487 74.8545 263.171 74.8545 262.815 74.8545C260.639 74.8545 259.293 74.6628 258.858 74.2411C258.423 73.8578 258.225 72.8227 258.225 71.1742V49.9742H264.951V50.0126Z" fill="#0A4163"></path><path d="M306.418 79.5705C306.061 79.0721 305.824 78.152 305.784 76.7719C305.745 74.9701 305.705 73.3983 305.705 72.1332V53.7318C305.705 48.9014 303.964 45.6045 300.403 43.8793C296.882 42.1159 292.807 41.2725 288.256 41.2725C281.253 41.2725 276.307 43.0359 273.458 46.5629C271.638 48.8247 270.61 51.6999 270.412 55.2269H280.857C281.134 53.6934 281.609 52.4667 282.4 51.5466C283.469 50.3198 285.328 49.7065 287.9 49.7065C290.195 49.7065 291.936 50.0515 293.163 50.6649C294.35 51.2782 294.943 52.4283 294.943 54.0768C294.943 55.4186 294.191 56.4153 292.648 57.0287C291.738 57.4121 290.353 57.7188 288.296 57.9488L284.577 58.4088C280.383 58.9072 277.178 59.7889 275.001 60.9773C271.045 63.2009 269.066 66.7661 269.066 71.7115C269.066 75.5068 270.293 78.4587 272.746 80.5289C275.199 82.599 278.325 83.6341 282.084 83.6341C285.051 83.6341 287.702 82.9824 290.037 81.679C292.015 80.5672 293.756 79.2638 295.22 77.6537C295.299 78.5737 295.378 79.3788 295.537 80.1072C295.655 80.7972 295.893 81.564 296.209 82.369H307.961V80.8356C307.248 80.4905 306.734 80.1072 306.378 79.6088M294.864 66.7661C294.785 70.2931 293.756 72.7083 291.778 74.0117C289.76 75.3535 287.623 76.0052 285.249 76.0052C283.746 76.0052 282.519 75.6218 281.451 74.8168C280.422 74.0117 279.868 72.7083 279.868 70.9448C279.868 68.913 280.739 67.4562 282.44 66.4978C283.469 65.9227 285.131 65.4627 287.386 65.041L289.879 64.581C291.105 64.3893 292.055 64.1209 292.807 63.8526C293.519 63.5842 294.191 63.2775 294.904 62.8558V66.7661H294.864Z" fill="#0A4163"></path><path d="M55.9193 56.99C54.4553 54.8048 52.2791 53.1947 49.4303 52.198C51.2899 51.2779 52.7539 50.2045 53.7035 49.0927C55.4445 47.0609 56.3149 44.3774 56.3149 41.0804C56.3149 37.7835 55.484 35.1 53.7431 32.7614C52.833 31.6114 51.8043 30.6146 50.5382 29.8479C47.7289 27.9694 43.9305 27.0493 39.1825 26.9727H12V81.4486H37.3624C40.2112 81.4486 42.8622 81.1803 45.3153 80.7202C47.7289 80.2218 49.8655 79.3401 51.646 77.9983C52.833 77.1549 53.8222 76.1582 54.7323 75.0464C55.0488 74.6247 55.3653 74.1647 55.6423 73.7047C57.3041 71.1361 58.135 68.2609 58.135 65.0407C58.135 61.8204 57.3832 59.2519 55.9588 57.0667M45.1571 42.3455C45.1571 44.6457 44.4053 46.2558 42.8622 47.1376C41.3191 48.0576 39.3407 48.4793 36.9271 48.4793H23.237V36.4801H35.4632C38.1537 36.4801 40.3695 36.7484 42.1104 37.3618C44.1283 38.1669 45.1571 39.8153 45.1571 42.3839M42.6248 71.0978C41.2399 71.7112 39.3407 72.0562 36.9271 72.0562H23.2766V57.5651H37.125C39.5386 57.5651 41.3982 57.9101 42.7435 58.4851C45.1175 59.5586 46.3441 61.4754 46.3441 64.3123C46.3441 64.8106 46.3441 65.309 46.2649 65.769C45.9484 68.3376 44.7614 70.1394 42.6644 71.1361" fill="#0A4163"></path><path d="M104.903 56.2236C104.389 53.08 103.281 50.2815 101.619 47.9046C99.7198 45.1827 97.3458 43.2276 94.4179 41.9625C91.5295 40.6974 88.285 40.084 84.6449 40.084C78.5516 40.084 73.6057 41.9625 69.8073 45.6428C65.9693 49.3614 64.0701 54.7285 64.0701 61.7057C64.0701 69.1429 66.2067 74.51 70.4008 77.8069C74.6344 81.1039 79.5407 82.7523 85.0801 82.7523C91.7669 82.7523 96.9897 80.7972 100.709 76.8869C103.123 74.4333 104.468 72.0182 104.745 69.603H93.6661C93.033 70.7914 92.2813 71.7115 91.4108 72.3632C89.8281 73.5899 87.8498 74.2033 85.3571 74.2033C83.0226 74.2033 81.0047 73.705 79.3429 72.6699C76.6128 71.0597 75.1884 68.2229 74.9905 64.1975H105.259C105.299 60.7089 105.18 58.0637 104.903 56.1852M75.2675 57.2203C75.6632 54.6135 76.6128 52.5433 78.1559 51.0098C79.699 49.4764 81.8752 48.7097 84.6449 48.7097C87.2167 48.7097 89.3533 49.4381 91.0943 50.8948C92.8352 52.3516 93.7848 54.4601 93.9826 57.2587H75.2675V57.2203Z" fill="#0A4163"></path><path d="M113.647 16.7374C113.014 11.2937 108.227 7 102.41 7C96.1984 7 91.1338 11.9071 91.1338 17.9259C91.1338 23.9447 96.1984 28.8517 102.41 28.8517C108.148 28.8517 112.856 24.7114 113.568 19.3826C113.647 18.8843 113.687 18.3859 113.687 17.9259C113.687 17.5425 113.687 17.1591 113.647 16.7758M102.41 26.2832C97.6623 26.2832 93.7848 22.5646 93.7848 17.9259C93.7848 13.2872 97.6623 9.56854 102.41 9.56854C107.158 9.56854 111.036 13.3255 111.036 17.9259C111.036 22.5262 107.158 26.2832 102.41 26.2832Z" fill="#0A4163"></path><path d="M128.366 49.7466C127.931 49.7083 127.496 49.6699 127.061 49.6699C126.586 49.6699 126.111 49.6699 125.636 49.7466C123.144 50.0149 120.809 51.1267 119.029 52.8902C116.892 54.9603 115.784 57.6822 115.784 60.5958C115.784 63.5093 117.05 66.2696 119.266 68.3781C121.007 70.0649 123.262 71.1383 125.597 71.445C126.072 71.5216 126.546 71.5216 126.982 71.5216H127.1C127.496 71.5216 127.892 71.5216 128.287 71.445C133.906 70.8316 138.337 66.1546 138.337 60.5574C138.337 54.9603 133.985 50.36 128.366 49.7083M127.061 68.9148C124.924 68.9148 122.748 68.033 121.126 66.4996C119.424 64.8895 118.475 62.781 118.475 60.5574C118.475 58.3339 119.345 56.2638 120.967 54.692C122.59 53.1202 124.766 52.2385 127.1 52.2385C131.848 52.2385 135.726 55.9954 135.726 60.5958C135.726 65.1961 131.848 68.9148 127.1 68.9531" fill="#0A4163"></path><path d="M151.513 91.1475C145.697 91.1475 140.87 95.4795 140.276 100.962C140.276 101.345 140.237 101.69 140.237 102.073C140.237 102.572 140.276 103.108 140.355 103.607C141.107 108.897 145.855 112.999 151.513 112.999C157.725 112.999 162.79 108.092 162.79 102.073C162.79 96.0545 157.725 91.1475 151.513 91.1475ZM151.513 110.431C146.765 110.431 142.888 106.674 142.888 102.073C142.888 97.473 146.726 93.716 151.513 93.716C156.301 93.716 160.139 97.4346 160.139 102.073C160.139 106.712 156.261 110.431 151.513 110.431Z" fill="#0A4163"></path><path d="M128.366 16.7373H112.381V19.3825H128.366V16.7373Z" fill="#0A4163"></path><path d="M128.366 16.7373H125.636V50.1283H128.366V16.7373Z" fill="#0A4163"></path><path d="M141.542 100.964H125.557V103.609H141.542V100.964Z" fill="#0A4163"></path><path d="M128.287 70.1777H125.557V103.569H128.287V70.1777Z" fill="#0A4163"></path><path d="M175.411 105.985C175.411 105.985 175.411 105.64 175.332 105.525C175.293 105.371 175.174 105.256 175.016 105.141C174.857 105.026 174.66 104.911 174.383 104.796C174.106 104.681 173.789 104.566 173.354 104.451C172.879 104.298 172.444 104.144 172.009 103.953C171.573 103.761 171.217 103.569 170.901 103.301C170.584 103.033 170.347 102.764 170.149 102.419C169.951 102.113 169.872 101.729 169.872 101.269C169.872 100.809 169.951 100.464 170.149 100.119C170.347 99.7741 170.584 99.4674 170.94 99.2374C171.296 99.0074 171.692 98.8157 172.167 98.6624C172.642 98.509 173.156 98.4707 173.71 98.4707C174.264 98.4707 174.818 98.5474 175.293 98.7007C175.767 98.8541 176.163 99.0841 176.48 99.3524C176.796 99.6208 177.073 99.9658 177.231 100.349C177.429 100.733 177.508 101.154 177.508 101.576H175.372C175.372 101.384 175.372 101.154 175.253 101.001C175.174 100.809 175.095 100.656 174.937 100.541C174.778 100.426 174.62 100.311 174.422 100.234C174.224 100.157 173.947 100.119 173.67 100.119C173.393 100.119 173.156 100.119 172.958 100.196C172.76 100.273 172.563 100.349 172.444 100.426C172.325 100.541 172.206 100.656 172.127 100.809C172.048 100.963 172.009 101.116 172.009 101.269C172.009 101.614 172.167 101.883 172.523 102.113C172.879 102.343 173.393 102.534 174.066 102.726C174.62 102.879 175.134 103.071 175.57 103.301C176.005 103.493 176.361 103.723 176.638 103.991C176.915 104.259 177.152 104.566 177.311 104.873C177.469 105.218 177.548 105.563 177.548 105.985C177.548 106.406 177.469 106.828 177.271 107.173C177.073 107.518 176.836 107.825 176.519 108.055C176.203 108.285 175.807 108.476 175.332 108.591C174.857 108.707 174.343 108.783 173.789 108.783C173.433 108.783 173.116 108.783 172.76 108.707C172.404 108.668 172.088 108.553 171.771 108.438C171.455 108.323 171.178 108.17 170.901 107.978C170.624 107.786 170.386 107.595 170.188 107.326C169.991 107.096 169.832 106.79 169.714 106.483C169.595 106.176 169.555 105.831 169.555 105.448H171.692C171.692 105.755 171.732 106.023 171.85 106.215C171.969 106.445 172.088 106.598 172.286 106.713C172.444 106.828 172.681 106.943 172.919 106.981C173.156 107.058 173.433 107.058 173.75 107.058C174.026 107.058 174.264 107.058 174.462 106.981C174.66 106.905 174.818 106.828 174.976 106.751C175.095 106.636 175.213 106.521 175.253 106.406C175.332 106.253 175.332 106.1 175.332 105.946" fill="#0A4163"></path><path d="M194.878 103.836C194.878 104.603 194.759 105.293 194.562 105.906C194.364 106.52 194.047 107.018 193.652 107.44C193.256 107.861 192.821 108.206 192.267 108.398C191.713 108.628 191.119 108.743 190.486 108.743C189.853 108.743 189.22 108.628 188.706 108.398C188.152 108.168 187.716 107.861 187.321 107.44C186.925 107.018 186.609 106.52 186.411 105.906C186.173 105.293 186.094 104.603 186.094 103.836V103.414C186.094 102.648 186.213 101.958 186.411 101.344C186.609 100.731 186.925 100.232 187.321 99.7724C187.716 99.3507 188.191 99.0057 188.706 98.7757C189.26 98.5457 189.853 98.4307 190.486 98.4307C191.119 98.4307 191.713 98.5457 192.267 98.7757C192.821 99.0057 193.256 99.3124 193.652 99.7724C194.047 100.194 194.324 100.731 194.562 101.344C194.759 101.958 194.878 102.648 194.878 103.414V103.836ZM192.702 103.376C192.702 102.341 192.504 101.536 192.108 100.961C191.713 100.386 191.159 100.156 190.447 100.156C189.734 100.156 189.18 100.424 188.785 100.961C188.389 101.498 188.191 102.303 188.191 103.376V103.836C188.191 104.373 188.231 104.833 188.35 105.216C188.468 105.6 188.587 105.945 188.785 106.213C188.983 106.481 189.22 106.711 189.497 106.826C189.774 106.98 190.09 107.018 190.447 107.018C191.159 107.018 191.713 106.75 192.108 106.175C192.504 105.638 192.702 104.833 192.702 103.759V103.299V103.376Z" fill="#0A4163"></path><path d="M205.957 106.982H210.507V108.63H203.82V98.5859H205.957V106.982Z" fill="#0A4163"></path><path d="M226.769 98.5859V105.218C226.769 105.793 226.65 106.292 226.453 106.752C226.255 107.212 225.978 107.557 225.622 107.863C225.266 108.17 224.87 108.4 224.356 108.553C223.881 108.707 223.327 108.783 222.773 108.783C222.219 108.783 221.665 108.707 221.19 108.553C220.715 108.4 220.28 108.17 219.924 107.863C219.568 107.557 219.291 107.212 219.093 106.752C218.895 106.292 218.816 105.793 218.816 105.218V98.5859H220.953V105.218C220.953 105.87 221.111 106.368 221.428 106.637C221.744 106.943 222.219 107.097 222.773 107.097C223.327 107.097 223.802 106.943 224.118 106.637C224.435 106.33 224.593 105.87 224.593 105.218V98.5859H226.73H226.769Z" fill="#0A4163"></path><path d="M243.704 100.273H240.539V108.63H238.402V100.273H235.276V98.5859H243.704V100.273Z" fill="#0A4163"></path><path d="M254.585 98.5859H252.448V108.63H254.585V98.5859Z" fill="#0A4163"></path><path d="M272.469 103.836C272.469 104.603 272.35 105.293 272.152 105.906C271.955 106.52 271.638 107.018 271.242 107.44C270.847 107.861 270.411 108.206 269.857 108.398C269.304 108.628 268.71 108.743 268.077 108.743C267.444 108.743 266.811 108.628 266.296 108.398C265.743 108.168 265.307 107.861 264.912 107.44C264.516 107.018 264.199 106.52 264.002 105.906C263.764 105.293 263.685 104.603 263.685 103.836V103.414C263.685 102.648 263.804 101.958 264.002 101.344C264.199 100.731 264.516 100.232 264.912 99.7724C265.307 99.3507 265.782 99.0057 266.296 98.7757C266.811 98.5457 267.444 98.4307 268.077 98.4307C268.71 98.4307 269.304 98.5457 269.857 98.7757C270.411 99.0057 270.847 99.3124 271.242 99.7724C271.638 100.194 271.915 100.731 272.152 101.344C272.35 101.958 272.469 102.648 272.469 103.414V103.836ZM270.293 103.376C270.293 102.341 270.095 101.536 269.699 100.961C269.304 100.424 268.75 100.156 268.037 100.156C267.325 100.156 266.771 100.424 266.376 100.961C265.98 101.498 265.782 102.303 265.782 103.376V103.836C265.782 104.373 265.822 104.833 265.94 105.216C266.059 105.6 266.178 105.945 266.376 106.213C266.573 106.481 266.811 106.711 267.088 106.826C267.365 106.98 267.681 107.018 268.037 107.018C268.75 107.018 269.304 106.75 269.699 106.175C270.095 105.638 270.293 104.833 270.293 103.759V103.299V103.376Z" fill="#0A4163"></path><path d="M289.799 108.63H287.663L283.508 102.036V108.63H281.372V98.5859H283.508L287.702 105.218V98.5859H289.799V108.63Z" fill="#0A4163"></path><path d="M304.439 105.985C304.439 105.985 304.439 105.64 304.36 105.525C304.32 105.371 304.201 105.256 304.043 105.141C303.885 105.026 303.687 104.911 303.41 104.796C303.133 104.681 302.817 104.566 302.381 104.451C301.907 104.298 301.471 104.144 301.036 103.953C300.601 103.761 300.245 103.569 299.928 103.301C299.612 103.033 299.374 102.764 299.177 102.419C298.979 102.113 298.9 101.729 298.9 101.269C298.9 100.809 298.979 100.464 299.177 100.119C299.374 99.7741 299.612 99.4674 299.968 99.2374C300.324 99.0074 300.72 98.8157 301.194 98.6624C301.669 98.509 302.184 98.4707 302.738 98.4707C303.291 98.4707 303.845 98.5474 304.32 98.7007C304.795 98.8541 305.191 99.0841 305.507 99.3524C305.824 99.6208 306.101 99.9658 306.259 100.349C306.457 100.733 306.536 101.154 306.536 101.576H304.399C304.399 101.384 304.399 101.154 304.281 101.001C304.202 100.809 304.122 100.656 303.964 100.541C303.806 100.426 303.648 100.311 303.45 100.234C303.252 100.157 302.975 100.119 302.698 100.119C302.421 100.119 302.184 100.119 301.986 100.196C301.788 100.273 301.59 100.349 301.471 100.426C301.353 100.541 301.234 100.656 301.155 100.809C301.076 100.963 301.036 101.116 301.036 101.269C301.036 101.614 301.194 101.883 301.551 102.113C301.907 102.343 302.421 102.534 303.094 102.726C303.648 102.879 304.162 103.071 304.597 103.301C305.032 103.493 305.389 103.723 305.665 103.991C305.942 104.259 306.18 104.566 306.338 104.873C306.496 105.218 306.576 105.563 306.576 105.985C306.576 106.406 306.496 106.828 306.299 107.173C306.101 107.518 305.863 107.825 305.547 108.055C305.23 108.285 304.835 108.476 304.36 108.591C303.885 108.707 303.371 108.783 302.817 108.783C302.461 108.783 302.144 108.783 301.788 108.707C301.432 108.668 301.115 108.553 300.799 108.438C300.482 108.323 300.205 108.17 299.928 107.978C299.651 107.786 299.414 107.595 299.216 107.326C299.018 107.096 298.86 106.79 298.741 106.483C298.623 106.176 298.583 105.831 298.583 105.448H300.72C300.72 105.755 300.759 106.023 300.878 106.215C300.997 106.445 301.115 106.598 301.313 106.713C301.471 106.828 301.709 106.943 301.946 106.981C302.184 107.058 302.461 107.058 302.777 107.058C303.054 107.058 303.291 107.058 303.489 106.981C303.687 106.905 303.845 106.828 304.004 106.751C304.122 106.636 304.241 106.521 304.281 106.406C304.36 106.253 304.36 106.1 304.36 105.946" fill="#0A4163"></path></g></svg>